<svg width="300" height="330" viewBox="0 0 300 330" fill="none" xmlns="http://www.w3.org/2000/svg">
<rect width="300" height="330" fill="#E5E5E5"/>
<rect y="30" width="300" height="300" fill="#C4C4C4"/>
<rect width="300" height="30" fill="#DFDEDE"/>
<rect x="205" y="296" width="90" height="29" fill="#E9E5E5"/>
<rect x="71" y="35" width="73" height="29" fill="#E9E5E5"/>
<rect x="220" y="35" width="73" height="29" fill="#E9E5E5"/>
<rect x="71" y="78" width="73" height="29" fill="#E9E5E5"/>
<rect x="220" y="78" width="73" height="29" fill="#E9E5E5"/>
<rect x="190" y="134" width="10" height="178" fill="#FFFAFA"/>
<rect x="193" y="137" width="4" height="172" rx="2" fill="#8C8C8C" fill-opacity="0.5"/>
<rect x="5" y="121" width="180" height="204" fill="#E9E5E5"/>
<rect x="205" y="121" width="90" height="29" fill="#E9E5E5"/>
<rect x="205" y="156" width="90" height="29" fill="#E9E5E5"/>
<rect x="205" y="191" width="90" height="29" fill="#E9E5E5"/>
<rect x="205" y="226" width="90" height="29" fill="#E9E5E5"/>
<rect x="205" y="261" width="90" height="29" fill="#E9E5E5"/>
<circle cx="16.5" cy="15.5" r="8.5" fill="#C4C4C4"/>
<circle cx="62.5" cy="15.5" r="8.5" fill="#C4C4C4"/>
<circle cx="39.5" cy="15.5" r="8.5" fill="#C4C4C4"/>
<path d="M26.3271 44.5918H22.2139V56H20.5352V44.5918H16.4307V43.2031H26.3271V44.5918ZM29.7373 56H28.1113V46.4902H29.7373V56ZM27.9795 43.9678C27.9795 43.7041 28.0586 43.4814 28.2168 43.2998C28.3809 43.1182 28.6211 43.0273 28.9375 43.0273C29.2539 43.0273 29.4941 43.1182 29.6582 43.2998C29.8223 43.4814 29.9043 43.7041 29.9043 43.9678C29.9043 44.2314 29.8223 44.4512 29.6582 44.627C29.4941 44.8027 29.2539 44.8906 28.9375 44.8906C28.6211 44.8906 28.3809 44.8027 28.2168 44.627C28.0586 44.4512 27.9795 44.2314 27.9795 43.9678ZM34.5537 44.1875V46.4902H36.3291V47.7471H34.5537V53.6445C34.5537 54.0254 34.6328 54.3125 34.791 54.5059C34.9492 54.6934 35.2188 54.7871 35.5996 54.7871C35.7871 54.7871 36.0449 54.752 36.373 54.6816V56C35.9453 56.1172 35.5293 56.1758 35.125 56.1758C34.3984 56.1758 33.8506 55.9561 33.4814 55.5166C33.1123 55.0771 32.9277 54.4531 32.9277 53.6445V47.7471H31.1963V46.4902H32.9277V44.1875H34.5537ZM40.0029 56H38.377V42.5H40.0029V56ZM46.5596 56.1758C45.2705 56.1758 44.2217 55.7539 43.4131 54.9102C42.6045 54.0605 42.2002 52.9268 42.2002 51.5088V51.21C42.2002 50.2666 42.3789 49.4258 42.7363 48.6875C43.0996 47.9434 43.6035 47.3633 44.248 46.9473C44.8984 46.5254 45.6016 46.3145 46.3574 46.3145C47.5938 46.3145 48.5547 46.7217 49.2402 47.5361C49.9258 48.3506 50.2686 49.5166 50.2686 51.0342V51.7109H43.8262C43.8496 52.6484 44.1221 53.4072 44.6436 53.9873C45.1709 54.5615 45.8389 54.8486 46.6475 54.8486C47.2217 54.8486 47.708 54.7314 48.1064 54.4971C48.5049 54.2627 48.8535 53.9521 49.1523 53.5654L50.1455 54.3389C49.3486 55.5635 48.1533 56.1758 46.5596 56.1758ZM46.3574 47.6504C45.7012 47.6504 45.1504 47.8906 44.7051 48.3711C44.2598 48.8457 43.9844 49.5137 43.8789 50.375H48.6426V50.252C48.5957 49.4258 48.373 48.7871 47.9746 48.3359C47.5762 47.8789 47.0371 47.6504 46.3574 47.6504Z" fill="black"/>
<path d="M158.296 99H156.608V86.2031H158.296V99ZM165.16 93.2959C163.713 92.8799 162.658 92.3701 161.996 91.7666C161.34 91.1572 161.012 90.4072 161.012 89.5166C161.012 88.5088 161.413 87.6768 162.216 87.0205C163.024 86.3584 164.073 86.0273 165.362 86.0273C166.241 86.0273 167.023 86.1973 167.709 86.5371C168.4 86.877 168.934 87.3457 169.309 87.9434C169.689 88.541 169.88 89.1943 169.88 89.9033H168.184C168.184 89.1299 167.938 88.5234 167.445 88.084C166.953 87.6387 166.259 87.416 165.362 87.416C164.53 87.416 163.88 87.6006 163.411 87.9697C162.948 88.333 162.717 88.8398 162.717 89.4902C162.717 90.0117 162.937 90.4541 163.376 90.8174C163.821 91.1748 164.574 91.5029 165.635 91.8018C166.701 92.1006 167.533 92.4316 168.131 92.7949C168.734 93.1523 169.18 93.5713 169.467 94.0518C169.76 94.5322 169.906 95.0977 169.906 95.748C169.906 96.7852 169.502 97.6172 168.693 98.2441C167.885 98.8652 166.804 99.1758 165.45 99.1758C164.571 99.1758 163.751 99.0088 162.989 98.6748C162.228 98.335 161.639 97.8721 161.223 97.2861C160.812 96.7002 160.607 96.0352 160.607 95.291H162.304C162.304 96.0645 162.588 96.6768 163.156 97.1279C163.73 97.5732 164.495 97.7959 165.45 97.7959C166.341 97.7959 167.023 97.6143 167.498 97.251C167.973 96.8877 168.21 96.3926 168.21 95.7656C168.21 95.1387 167.99 94.6553 167.551 94.3154C167.111 93.9697 166.314 93.6299 165.16 93.2959ZM172.077 99V86.2031H176.261C177.649 86.2031 178.692 86.4902 179.39 87.0645C180.093 87.6387 180.444 88.4883 180.444 89.6133C180.444 90.2109 180.274 90.7412 179.935 91.2041C179.595 91.6611 179.132 92.0156 178.546 92.2676C179.237 92.4609 179.782 92.8301 180.181 93.375C180.585 93.9141 180.787 94.5586 180.787 95.3086C180.787 96.457 180.415 97.3594 179.671 98.0156C178.927 98.6719 177.875 99 176.516 99H172.077ZM173.765 93.0146V97.6201H176.551C177.336 97.6201 177.954 97.418 178.405 97.0137C178.862 96.6035 179.091 96.041 179.091 95.3262C179.091 93.7852 178.253 93.0146 176.577 93.0146H173.765ZM173.765 91.6611H176.313C177.052 91.6611 177.641 91.4766 178.08 91.1074C178.525 90.7383 178.748 90.2373 178.748 89.6045C178.748 88.9014 178.543 88.3916 178.133 88.0752C177.723 87.7529 177.099 87.5918 176.261 87.5918H173.765V91.6611ZM193.127 99H191.431L184.988 89.1387V99H183.292V86.2031H184.988L191.448 96.1084V86.2031H193.127V99Z" fill="black"/>
<path d="M21.3877 92.6279L24.7275 86.2031H26.6436L22.2314 94.2275V99H20.5439V94.2275L16.1318 86.2031H18.0654L21.3877 92.6279ZM31.4072 99.1758C30.1182 99.1758 29.0693 98.7539 28.2607 97.9102C27.4521 97.0605 27.0479 95.9268 27.0479 94.5088V94.21C27.0479 93.2666 27.2266 92.4258 27.584 91.6875C27.9473 90.9434 28.4512 90.3633 29.0957 89.9473C29.7461 89.5254 30.4492 89.3145 31.2051 89.3145C32.4414 89.3145 33.4023 89.7217 34.0879 90.5361C34.7734 91.3506 35.1162 92.5166 35.1162 94.0342V94.7109H28.6738C28.6973 95.6484 28.9697 96.4072 29.4912 96.9873C30.0186 97.5615 30.6865 97.8486 31.4951 97.8486C32.0693 97.8486 32.5557 97.7314 32.9541 97.4971C33.3525 97.2627 33.7012 96.9521 34 96.5654L34.9932 97.3389C34.1963 98.5635 33.001 99.1758 31.4072 99.1758ZM31.2051 90.6504C30.5488 90.6504 29.998 90.8906 29.5527 91.3711C29.1074 91.8457 28.832 92.5137 28.7266 93.375H33.4902V93.252C33.4434 92.4258 33.2207 91.7871 32.8223 91.3359C32.4238 90.8789 31.8848 90.6504 31.2051 90.6504ZM42.877 99C42.7832 98.8125 42.707 98.4785 42.6484 97.998C41.8926 98.7832 40.9902 99.1758 39.9414 99.1758C39.0039 99.1758 38.2334 98.9121 37.6299 98.3848C37.0322 97.8516 36.7334 97.1777 36.7334 96.3633C36.7334 95.373 37.1084 94.6055 37.8584 94.0605C38.6143 93.5098 39.6748 93.2344 41.04 93.2344H42.6221V92.4873C42.6221 91.9189 42.4521 91.4678 42.1123 91.1338C41.7725 90.7939 41.2715 90.624 40.6094 90.624C40.0293 90.624 39.543 90.7705 39.1504 91.0635C38.7578 91.3564 38.5615 91.7109 38.5615 92.127H36.9268C36.9268 91.6523 37.0938 91.1953 37.4277 90.7559C37.7676 90.3105 38.2246 89.959 38.7988 89.7012C39.3789 89.4434 40.0146 89.3145 40.7061 89.3145C41.8018 89.3145 42.6602 89.5898 43.2812 90.1406C43.9023 90.6855 44.2246 91.4385 44.248 92.3994V96.7764C44.248 97.6494 44.3594 98.3438 44.582 98.8594V99H42.877ZM40.1787 97.7607C40.6885 97.7607 41.1719 97.6289 41.6289 97.3652C42.0859 97.1016 42.417 96.7588 42.6221 96.3369V94.3857H41.3477C39.3555 94.3857 38.3594 94.9688 38.3594 96.1348C38.3594 96.6445 38.5293 97.043 38.8691 97.3301C39.209 97.6172 39.6455 97.7607 40.1787 97.7607ZM51.3936 90.9492C51.1475 90.9082 50.8809 90.8877 50.5938 90.8877C49.5273 90.8877 48.8037 91.3418 48.4229 92.25V99H46.7969V89.4902H48.3789L48.4053 90.5889C48.9385 89.7393 49.6943 89.3145 50.6729 89.3145C50.9893 89.3145 51.2295 89.3555 51.3936 89.4375V90.9492Z" fill="black"/>
<path d="M163.552 52.6602H158.19L156.986 56H155.246L160.133 43.2031H161.609L166.505 56H164.773L163.552 52.6602ZM158.7 51.2715H163.051L160.871 45.2861L158.7 51.2715ZM173.738 55.0596C173.105 55.8037 172.177 56.1758 170.952 56.1758C169.938 56.1758 169.165 55.8828 168.632 55.2969C168.104 54.7051 167.838 53.832 167.832 52.6777V46.4902H169.458V52.6338C169.458 54.0752 170.044 54.7959 171.216 54.7959C172.458 54.7959 173.284 54.333 173.694 53.4072V46.4902H175.32V56H173.773L173.738 55.0596ZM180.005 44.1875V46.4902H181.78V47.7471H180.005V53.6445C180.005 54.0254 180.084 54.3125 180.242 54.5059C180.4 54.6934 180.67 54.7871 181.051 54.7871C181.238 54.7871 181.496 54.752 181.824 54.6816V56C181.396 56.1172 180.98 56.1758 180.576 56.1758C179.85 56.1758 179.302 55.9561 178.933 55.5166C178.563 55.0771 178.379 54.4531 178.379 53.6445V47.7471H176.647V46.4902H178.379V44.1875H180.005ZM185.313 47.6416C186.034 46.7568 186.972 46.3145 188.126 46.3145C190.136 46.3145 191.149 47.4482 191.167 49.7158V56H189.541V49.707C189.535 49.0215 189.377 48.5146 189.066 48.1865C188.762 47.8584 188.284 47.6943 187.634 47.6943C187.106 47.6943 186.644 47.835 186.245 48.1162C185.847 48.3975 185.536 48.7666 185.313 49.2236V56H183.688V42.5H185.313V47.6416ZM193.171 51.1572C193.171 50.2256 193.353 49.3877 193.716 48.6436C194.085 47.8994 194.595 47.3252 195.245 46.9209C195.901 46.5166 196.648 46.3145 197.486 46.3145C198.781 46.3145 199.827 46.7627 200.624 47.6592C201.427 48.5557 201.828 49.748 201.828 51.2363V51.3506C201.828 52.2764 201.649 53.1084 201.292 53.8467C200.94 54.5791 200.434 55.1504 199.771 55.5605C199.115 55.9707 198.359 56.1758 197.504 56.1758C196.215 56.1758 195.169 55.7275 194.366 54.8311C193.569 53.9346 193.171 52.748 193.171 51.2715V51.1572ZM194.806 51.3506C194.806 52.4053 195.049 53.252 195.535 53.8906C196.027 54.5293 196.684 54.8486 197.504 54.8486C198.33 54.8486 198.986 54.5264 199.473 53.8818C199.959 53.2314 200.202 52.3232 200.202 51.1572C200.202 50.1143 199.953 49.2705 199.455 48.626C198.963 47.9756 198.307 47.6504 197.486 47.6504C196.684 47.6504 196.036 47.9697 195.544 48.6084C195.052 49.2471 194.806 50.1611 194.806 51.3506ZM208.464 47.9492C208.218 47.9082 207.951 47.8877 207.664 47.8877C206.598 47.8877 205.874 48.3418 205.493 49.25V56H203.867V46.4902H205.449L205.476 47.5889C206.009 46.7393 206.765 46.3145 207.743 46.3145C208.06 46.3145 208.3 46.3555 208.464 46.4375V47.9492Z" fill="black"/>
<path d="M229.45 138.257L232.294 130.047H233.729L230.038 140H228.876L225.191 130.047H226.62L229.45 138.257ZM236.245 140H234.98V132.604H236.245V140ZM234.878 130.642C234.878 130.437 234.939 130.263 235.062 130.122C235.19 129.981 235.377 129.91 235.623 129.91C235.869 129.91 236.056 129.981 236.184 130.122C236.311 130.263 236.375 130.437 236.375 130.642C236.375 130.847 236.311 131.018 236.184 131.154C236.056 131.291 235.869 131.359 235.623 131.359C235.377 131.359 235.19 131.291 235.062 131.154C234.939 131.018 234.878 130.847 234.878 130.642ZM241.345 140.137C240.342 140.137 239.526 139.809 238.897 139.152C238.269 138.492 237.954 137.61 237.954 136.507V136.274C237.954 135.541 238.093 134.887 238.371 134.312C238.654 133.734 239.046 133.283 239.547 132.959C240.053 132.631 240.6 132.467 241.188 132.467C242.149 132.467 242.896 132.784 243.43 133.417C243.963 134.05 244.229 134.957 244.229 136.138V136.664H239.219C239.237 137.393 239.449 137.983 239.854 138.435C240.265 138.881 240.784 139.104 241.413 139.104C241.86 139.104 242.238 139.013 242.548 138.831C242.858 138.649 243.129 138.407 243.361 138.106L244.134 138.708C243.514 139.66 242.584 140.137 241.345 140.137ZM241.188 133.506C240.677 133.506 240.249 133.693 239.902 134.066C239.556 134.436 239.342 134.955 239.26 135.625H242.965V135.529C242.928 134.887 242.755 134.39 242.445 134.039C242.135 133.684 241.716 133.506 241.188 133.506ZM252.248 138.257L253.67 132.604H254.935L252.781 140H251.756L249.958 134.395L248.208 140H247.183L245.036 132.604H246.294L247.75 138.141L249.473 132.604H250.491L252.248 138.257ZM264.266 140C264.193 139.854 264.133 139.594 264.088 139.221C263.5 139.831 262.798 140.137 261.982 140.137C261.253 140.137 260.654 139.932 260.185 139.521C259.72 139.107 259.487 138.583 259.487 137.949C259.487 137.179 259.779 136.582 260.362 136.158C260.95 135.73 261.775 135.516 262.837 135.516H264.067V134.935C264.067 134.493 263.935 134.142 263.671 133.882C263.407 133.618 263.017 133.485 262.502 133.485C262.051 133.485 261.673 133.599 261.367 133.827C261.062 134.055 260.909 134.331 260.909 134.654H259.638C259.638 134.285 259.768 133.93 260.027 133.588C260.292 133.242 260.647 132.968 261.094 132.768C261.545 132.567 262.039 132.467 262.577 132.467C263.429 132.467 264.097 132.681 264.58 133.109C265.063 133.533 265.314 134.119 265.332 134.866V138.271C265.332 138.95 265.419 139.49 265.592 139.891V140H264.266ZM262.167 139.036C262.563 139.036 262.939 138.934 263.295 138.729C263.65 138.523 263.908 138.257 264.067 137.929V136.411H263.076C261.527 136.411 260.752 136.865 260.752 137.771C260.752 138.168 260.884 138.478 261.148 138.701C261.413 138.924 261.752 139.036 262.167 139.036ZM268.688 140H267.424V129.5H268.688V140ZM272.093 140H270.828V129.5H272.093V140Z" fill="black"/>
<path d="M240.477 312.842C240.354 313.895 239.964 314.708 239.308 315.282C238.656 315.852 237.788 316.137 236.703 316.137C235.527 316.137 234.584 315.715 233.873 314.872C233.167 314.029 232.813 312.901 232.813 311.488V310.531C232.813 309.606 232.978 308.793 233.306 308.091C233.638 307.389 234.108 306.851 234.714 306.478C235.32 306.099 236.022 305.91 236.819 305.91C237.877 305.91 238.724 306.206 239.362 306.799C240 307.387 240.372 308.202 240.477 309.246H239.157C239.043 308.453 238.795 307.879 238.412 307.523C238.034 307.168 237.503 306.99 236.819 306.99C235.981 306.99 235.322 307.3 234.844 307.92C234.37 308.54 234.133 309.422 234.133 310.565V311.529C234.133 312.609 234.358 313.468 234.81 314.106C235.261 314.744 235.892 315.063 236.703 315.063C237.432 315.063 237.991 314.899 238.378 314.571C238.77 314.239 239.03 313.662 239.157 312.842H240.477ZM243.45 316H242.186V305.5H243.45V316ZM245.146 312.233C245.146 311.509 245.287 310.857 245.569 310.278C245.856 309.7 246.253 309.253 246.759 308.938C247.269 308.624 247.85 308.467 248.502 308.467C249.509 308.467 250.323 308.815 250.942 309.513C251.567 310.21 251.879 311.137 251.879 312.295V312.384C251.879 313.104 251.74 313.751 251.462 314.325C251.188 314.895 250.794 315.339 250.279 315.658C249.769 315.977 249.181 316.137 248.516 316.137C247.513 316.137 246.7 315.788 246.075 315.091C245.455 314.394 245.146 313.471 245.146 312.322V312.233ZM246.417 312.384C246.417 313.204 246.606 313.863 246.984 314.359C247.367 314.856 247.878 315.104 248.516 315.104C249.158 315.104 249.669 314.854 250.047 314.353C250.425 313.847 250.614 313.14 250.614 312.233C250.614 311.422 250.421 310.766 250.033 310.265C249.65 309.759 249.14 309.506 248.502 309.506C247.878 309.506 247.374 309.754 246.991 310.251C246.608 310.748 246.417 311.459 246.417 312.384ZM257.771 314.038C257.771 313.696 257.642 313.432 257.382 313.245C257.127 313.054 256.678 312.89 256.035 312.753C255.397 312.616 254.889 312.452 254.511 312.261C254.137 312.069 253.859 311.841 253.677 311.577C253.499 311.313 253.41 310.998 253.41 310.634C253.41 310.028 253.665 309.515 254.176 309.096C254.691 308.676 255.347 308.467 256.145 308.467C256.983 308.467 257.662 308.683 258.182 309.116C258.706 309.549 258.968 310.103 258.968 310.777H257.696C257.696 310.431 257.548 310.132 257.252 309.882C256.96 309.631 256.591 309.506 256.145 309.506C255.684 309.506 255.324 309.606 255.064 309.807C254.805 310.007 254.675 310.269 254.675 310.593C254.675 310.898 254.796 311.128 255.037 311.283C255.279 311.438 255.714 311.586 256.343 311.728C256.976 311.869 257.489 312.037 257.881 312.233C258.273 312.429 258.562 312.666 258.749 312.944C258.94 313.218 259.036 313.553 259.036 313.949C259.036 314.61 258.772 315.141 258.243 315.542C257.715 315.938 257.029 316.137 256.186 316.137C255.593 316.137 255.069 316.032 254.613 315.822C254.158 315.613 253.8 315.321 253.54 314.947C253.285 314.569 253.157 314.161 253.157 313.724H254.422C254.445 314.147 254.613 314.485 254.928 314.735C255.247 314.981 255.666 315.104 256.186 315.104C256.664 315.104 257.047 315.009 257.334 314.817C257.626 314.621 257.771 314.362 257.771 314.038ZM263.753 316.137C262.75 316.137 261.935 315.809 261.306 315.152C260.677 314.492 260.362 313.61 260.362 312.507V312.274C260.362 311.541 260.501 310.887 260.779 310.312C261.062 309.734 261.454 309.283 261.955 308.959C262.461 308.631 263.008 308.467 263.596 308.467C264.557 308.467 265.305 308.784 265.838 309.417C266.371 310.05 266.638 310.957 266.638 312.138V312.664H261.627C261.645 313.393 261.857 313.983 262.263 314.435C262.673 314.881 263.192 315.104 263.821 315.104C264.268 315.104 264.646 315.013 264.956 314.831C265.266 314.649 265.537 314.407 265.77 314.106L266.542 314.708C265.922 315.66 264.993 316.137 263.753 316.137ZM263.596 309.506C263.085 309.506 262.657 309.693 262.311 310.066C261.964 310.436 261.75 310.955 261.668 311.625H265.373V311.529C265.337 310.887 265.163 310.39 264.854 310.039C264.544 309.684 264.124 309.506 263.596 309.506Z" fill="black"/>
<path d="M231.155 281V271.047H233.965C234.831 271.047 235.596 271.238 236.262 271.621C236.927 272.004 237.44 272.549 237.8 273.255C238.164 273.961 238.349 274.772 238.354 275.688V276.324C238.354 277.263 238.171 278.086 237.807 278.792C237.447 279.498 236.929 280.041 236.255 280.419C235.585 280.797 234.803 280.991 233.91 281H231.155ZM232.468 272.127V279.927H233.849C234.86 279.927 235.646 279.612 236.207 278.983C236.772 278.354 237.055 277.459 237.055 276.297V275.716C237.055 274.586 236.788 273.708 236.255 273.084C235.726 272.455 234.974 272.136 233.999 272.127H232.468ZM243.214 281.137C242.211 281.137 241.396 280.809 240.767 280.152C240.138 279.492 239.823 278.61 239.823 277.507V277.274C239.823 276.541 239.962 275.887 240.24 275.312C240.523 274.734 240.915 274.283 241.416 273.959C241.922 273.631 242.469 273.467 243.057 273.467C244.018 273.467 244.766 273.784 245.299 274.417C245.832 275.05 246.099 275.957 246.099 277.138V277.664H241.088C241.106 278.393 241.318 278.983 241.724 279.435C242.134 279.881 242.653 280.104 243.282 280.104C243.729 280.104 244.107 280.013 244.417 279.831C244.727 279.649 244.998 279.407 245.23 279.106L246.003 279.708C245.383 280.66 244.453 281.137 243.214 281.137ZM243.057 274.506C242.546 274.506 242.118 274.693 241.771 275.066C241.425 275.436 241.211 275.955 241.129 276.625H244.834V276.529C244.798 275.887 244.624 275.39 244.314 275.039C244.005 274.684 243.585 274.506 243.057 274.506ZM248.942 281H247.678V270.5H248.942V281ZM254.042 281.137C253.039 281.137 252.224 280.809 251.595 280.152C250.966 279.492 250.651 278.61 250.651 277.507V277.274C250.651 276.541 250.79 275.887 251.068 275.312C251.351 274.734 251.743 274.283 252.244 273.959C252.75 273.631 253.297 273.467 253.885 273.467C254.846 273.467 255.594 273.784 256.127 274.417C256.66 275.05 256.927 275.957 256.927 277.138V277.664H251.916C251.934 278.393 252.146 278.983 252.552 279.435C252.962 279.881 253.481 280.104 254.11 280.104C254.557 280.104 254.935 280.013 255.245 279.831C255.555 279.649 255.826 279.407 256.059 279.106L256.831 279.708C256.211 280.66 255.282 281.137 254.042 281.137ZM253.885 274.506C253.374 274.506 252.946 274.693 252.6 275.066C252.253 275.436 252.039 275.955 251.957 276.625H255.662V276.529C255.626 275.887 255.452 275.39 255.143 275.039C254.833 274.684 254.413 274.506 253.885 274.506ZM260.112 271.812V273.604H261.493V274.581H260.112V279.168C260.112 279.464 260.174 279.688 260.297 279.838C260.42 279.984 260.63 280.057 260.926 280.057C261.072 280.057 261.272 280.029 261.527 279.975V281C261.195 281.091 260.871 281.137 260.557 281.137C259.992 281.137 259.565 280.966 259.278 280.624C258.991 280.282 258.848 279.797 258.848 279.168V274.581H257.501V273.604H258.848V271.812H260.112ZM266.046 281.137C265.043 281.137 264.228 280.809 263.599 280.152C262.97 279.492 262.655 278.61 262.655 277.507V277.274C262.655 276.541 262.794 275.887 263.072 275.312C263.355 274.734 263.747 274.283 264.248 273.959C264.754 273.631 265.301 273.467 265.889 273.467C266.85 273.467 267.598 273.784 268.131 274.417C268.664 275.05 268.931 275.957 268.931 277.138V277.664H263.92C263.938 278.393 264.15 278.983 264.556 279.435C264.966 279.881 265.485 280.104 266.114 280.104C266.561 280.104 266.939 280.013 267.249 279.831C267.559 279.649 267.83 279.407 268.062 279.106L268.835 279.708C268.215 280.66 267.285 281.137 266.046 281.137ZM265.889 274.506C265.378 274.506 264.95 274.693 264.604 275.066C264.257 275.436 264.043 275.955 263.961 276.625H267.666V276.529C267.63 275.887 267.456 275.39 267.146 275.039C266.837 274.684 266.417 274.506 265.889 274.506Z" fill="black"/>
<path d="M235.162 236.047V242.814C235.158 243.753 234.861 244.521 234.273 245.118C233.69 245.715 232.897 246.05 231.895 246.123L231.546 246.137C230.457 246.137 229.589 245.843 228.941 245.255C228.294 244.667 227.966 243.858 227.957 242.828V236.047H229.256V242.787C229.256 243.507 229.454 244.068 229.851 244.469C230.247 244.865 230.812 245.063 231.546 245.063C232.289 245.063 232.856 244.865 233.248 244.469C233.645 244.072 233.843 243.514 233.843 242.794V236.047H235.162ZM243.283 242.384C243.283 243.509 243.026 244.416 242.511 245.104C241.996 245.793 241.299 246.137 240.419 246.137C239.521 246.137 238.815 245.852 238.3 245.282V248.844H237.035V238.604H238.19L238.252 239.424C238.767 238.786 239.482 238.467 240.398 238.467C241.287 238.467 241.989 238.802 242.504 239.472C243.023 240.142 243.283 241.074 243.283 242.268V242.384ZM242.019 242.24C242.019 241.406 241.841 240.748 241.485 240.265C241.13 239.782 240.642 239.54 240.022 239.54C239.257 239.54 238.683 239.88 238.3 240.559V244.093C238.678 244.767 239.257 245.104 240.036 245.104C240.642 245.104 241.123 244.865 241.479 244.387C241.839 243.904 242.019 243.188 242.019 242.24ZM244.589 242.24C244.589 241.105 244.858 240.194 245.396 239.506C245.933 238.813 246.637 238.467 247.508 238.467C248.374 238.467 249.06 238.763 249.565 239.355V235.5H250.83V246H249.668L249.606 245.207C249.101 245.827 248.396 246.137 247.494 246.137C246.637 246.137 245.938 245.786 245.396 245.084C244.858 244.382 244.589 243.466 244.589 242.336V242.24ZM245.854 242.384C245.854 243.222 246.027 243.879 246.373 244.353C246.719 244.826 247.198 245.063 247.809 245.063C248.611 245.063 249.196 244.703 249.565 243.983V240.586C249.187 239.889 248.606 239.54 247.822 239.54C247.202 239.54 246.719 239.779 246.373 240.258C246.027 240.736 245.854 241.445 245.854 242.384ZM257.365 246C257.292 245.854 257.233 245.594 257.188 245.221C256.6 245.831 255.898 246.137 255.082 246.137C254.353 246.137 253.754 245.932 253.284 245.521C252.819 245.107 252.587 244.583 252.587 243.949C252.587 243.179 252.879 242.582 253.462 242.158C254.05 241.73 254.875 241.516 255.937 241.516H257.167V240.935C257.167 240.493 257.035 240.142 256.771 239.882C256.506 239.618 256.117 239.485 255.602 239.485C255.15 239.485 254.772 239.599 254.467 239.827C254.161 240.055 254.009 240.331 254.009 240.654H252.737C252.737 240.285 252.867 239.93 253.127 239.588C253.391 239.242 253.747 238.968 254.193 238.768C254.645 238.567 255.139 238.467 255.677 238.467C256.529 238.467 257.197 238.681 257.68 239.109C258.163 239.533 258.413 240.119 258.432 240.866V244.271C258.432 244.95 258.518 245.49 258.691 245.891V246H257.365ZM255.267 245.036C255.663 245.036 256.039 244.934 256.395 244.729C256.75 244.523 257.007 244.257 257.167 243.929V242.411H256.176C254.626 242.411 253.852 242.865 253.852 243.771C253.852 244.168 253.984 244.478 254.248 244.701C254.512 244.924 254.852 245.036 255.267 245.036ZM262.13 236.812V238.604H263.511V239.581H262.13V244.168C262.13 244.464 262.191 244.688 262.314 244.838C262.438 244.984 262.647 245.057 262.943 245.057C263.089 245.057 263.29 245.029 263.545 244.975V246C263.212 246.091 262.889 246.137 262.574 246.137C262.009 246.137 261.583 245.966 261.296 245.624C261.009 245.282 260.865 244.797 260.865 244.168V239.581H259.519V238.604H260.865V236.812H262.13ZM268.063 246.137C267.061 246.137 266.245 245.809 265.616 245.152C264.987 244.492 264.673 243.61 264.673 242.507V242.274C264.673 241.541 264.812 240.887 265.09 240.312C265.372 239.734 265.764 239.283 266.266 238.959C266.771 238.631 267.318 238.467 267.906 238.467C268.868 238.467 269.615 238.784 270.148 239.417C270.682 240.05 270.948 240.957 270.948 242.138V242.664H265.938C265.956 243.393 266.168 243.983 266.573 244.435C266.983 244.881 267.503 245.104 268.132 245.104C268.578 245.104 268.957 245.013 269.267 244.831C269.576 244.649 269.848 244.407 270.08 244.106L270.853 244.708C270.233 245.66 269.303 246.137 268.063 246.137ZM267.906 239.506C267.396 239.506 266.967 239.693 266.621 240.066C266.275 240.436 266.061 240.955 265.979 241.625H269.684V241.529C269.647 240.887 269.474 240.39 269.164 240.039C268.854 239.684 268.435 239.506 267.906 239.506Z" fill="black"/>
<path d="M226.651 207.402H222.481L221.545 210H220.191L223.992 200.047H225.141L228.948 210H227.602L226.651 207.402ZM222.878 206.322H226.262L224.566 201.667L222.878 206.322ZM229.782 206.24C229.782 205.105 230.051 204.194 230.589 203.506C231.127 202.813 231.831 202.467 232.701 202.467C233.567 202.467 234.253 202.763 234.759 203.355V199.5H236.023V210H234.861L234.8 209.207C234.294 209.827 233.59 210.137 232.688 210.137C231.831 210.137 231.131 209.786 230.589 209.084C230.051 208.382 229.782 207.466 229.782 206.336V206.24ZM231.047 206.384C231.047 207.222 231.22 207.879 231.566 208.353C231.913 208.826 232.391 209.063 233.002 209.063C233.804 209.063 234.39 208.703 234.759 207.983V204.586C234.381 203.889 233.799 203.54 233.016 203.54C232.396 203.54 231.913 203.779 231.566 204.258C231.22 204.736 231.047 205.445 231.047 206.384ZM237.685 206.24C237.685 205.105 237.953 204.194 238.491 203.506C239.029 202.813 239.733 202.467 240.604 202.467C241.469 202.467 242.155 202.763 242.661 203.355V199.5H243.926V210H242.764L242.702 209.207C242.196 209.827 241.492 210.137 240.59 210.137C239.733 210.137 239.034 209.786 238.491 209.084C237.953 208.382 237.685 207.466 237.685 206.336V206.24ZM238.949 206.384C238.949 207.222 239.122 207.879 239.469 208.353C239.815 208.826 240.294 209.063 240.904 209.063C241.706 209.063 242.292 208.703 242.661 207.983V204.586C242.283 203.889 241.702 203.54 240.918 203.54C240.298 203.54 239.815 203.779 239.469 204.258C239.122 204.736 238.949 205.445 238.949 206.384ZM252.437 210.137C251.434 210.137 250.618 209.809 249.989 209.152C249.36 208.492 249.046 207.61 249.046 206.507V206.274C249.046 205.541 249.185 204.887 249.463 204.312C249.745 203.734 250.137 203.283 250.639 202.959C251.145 202.631 251.691 202.467 252.279 202.467C253.241 202.467 253.988 202.784 254.521 203.417C255.055 204.05 255.321 204.957 255.321 206.138V206.664H250.311C250.329 207.393 250.541 207.983 250.946 208.435C251.356 208.881 251.876 209.104 252.505 209.104C252.951 209.104 253.33 209.013 253.64 208.831C253.95 208.649 254.221 208.407 254.453 208.106L255.226 208.708C254.606 209.66 253.676 210.137 252.437 210.137ZM252.279 203.506C251.769 203.506 251.34 203.693 250.994 204.066C250.648 204.436 250.434 204.955 250.352 205.625H254.057V205.529C254.02 204.887 253.847 204.39 253.537 204.039C253.227 203.684 252.808 203.506 252.279 203.506ZM257.987 202.604L258.028 203.533C258.593 202.822 259.332 202.467 260.243 202.467C261.806 202.467 262.595 203.349 262.608 205.112V210H261.344V205.105C261.339 204.572 261.216 204.178 260.975 203.923C260.738 203.668 260.366 203.54 259.86 203.54C259.45 203.54 259.09 203.649 258.78 203.868C258.47 204.087 258.229 204.374 258.056 204.729V210H256.791V202.604H257.987ZM266.231 200.812V202.604H267.612V203.581H266.231V208.168C266.231 208.464 266.293 208.688 266.416 208.838C266.539 208.984 266.749 209.057 267.045 209.057C267.191 209.057 267.391 209.029 267.646 208.975V210C267.314 210.091 266.99 210.137 266.676 210.137C266.111 210.137 265.685 209.966 265.397 209.624C265.11 209.282 264.967 208.797 264.967 208.168V203.581H263.62V202.604H264.967V200.812H266.231ZM272.671 203.738C272.479 203.706 272.272 203.69 272.049 203.69C271.219 203.69 270.657 204.044 270.36 204.75V210H269.096V202.604H270.326L270.347 203.458C270.761 202.797 271.349 202.467 272.11 202.467C272.356 202.467 272.543 202.499 272.671 202.562V203.738ZM276.383 208.147L278.105 202.604H279.459L276.485 211.142C276.025 212.372 275.294 212.987 274.291 212.987L274.052 212.967L273.58 212.878V211.853L273.922 211.88C274.35 211.88 274.683 211.793 274.92 211.62C275.161 211.447 275.36 211.13 275.515 210.67L275.795 209.918L273.156 202.604H274.537L276.383 208.147Z" fill="black"/>
<path d="M215.088 170.563C213.962 170.24 213.142 169.843 212.627 169.374C212.117 168.9 211.861 168.317 211.861 167.624C211.861 166.84 212.174 166.193 212.798 165.683C213.427 165.168 214.243 164.91 215.245 164.91C215.929 164.91 216.537 165.042 217.07 165.307C217.608 165.571 218.023 165.936 218.314 166.4C218.611 166.865 218.759 167.373 218.759 167.925H217.439C217.439 167.323 217.248 166.852 216.865 166.51C216.482 166.163 215.942 165.99 215.245 165.99C214.598 165.99 214.092 166.134 213.728 166.421C213.368 166.703 213.188 167.098 213.188 167.604C213.188 168.009 213.358 168.353 213.7 168.636C214.047 168.914 214.632 169.169 215.457 169.401C216.286 169.634 216.934 169.891 217.398 170.174C217.868 170.452 218.214 170.778 218.438 171.151C218.665 171.525 218.779 171.965 218.779 172.471C218.779 173.277 218.465 173.924 217.836 174.412C217.207 174.895 216.366 175.137 215.313 175.137C214.63 175.137 213.992 175.007 213.399 174.747C212.807 174.483 212.349 174.123 212.025 173.667C211.706 173.211 211.547 172.694 211.547 172.115H212.866C212.866 172.717 213.087 173.193 213.529 173.544C213.976 173.89 214.571 174.063 215.313 174.063C216.006 174.063 216.537 173.922 216.906 173.64C217.275 173.357 217.46 172.972 217.46 172.484C217.46 171.997 217.289 171.621 216.947 171.356C216.605 171.088 215.986 170.823 215.088 170.563ZM223.339 175.137C222.336 175.137 221.521 174.809 220.892 174.152C220.263 173.492 219.948 172.61 219.948 171.507V171.274C219.948 170.541 220.087 169.887 220.365 169.312C220.648 168.734 221.04 168.283 221.541 167.959C222.047 167.631 222.594 167.467 223.182 167.467C224.143 167.467 224.891 167.784 225.424 168.417C225.957 169.05 226.224 169.957 226.224 171.138V171.664H221.213C221.231 172.393 221.443 172.983 221.849 173.435C222.259 173.881 222.778 174.104 223.407 174.104C223.854 174.104 224.232 174.013 224.542 173.831C224.852 173.649 225.123 173.407 225.355 173.106L226.128 173.708C225.508 174.66 224.578 175.137 223.339 175.137ZM223.182 168.506C222.671 168.506 222.243 168.693 221.896 169.066C221.55 169.436 221.336 169.955 221.254 170.625H224.959V170.529C224.923 169.887 224.749 169.39 224.439 169.039C224.13 168.684 223.71 168.506 223.182 168.506ZM232.26 175C232.187 174.854 232.128 174.594 232.082 174.221C231.494 174.831 230.792 175.137 229.977 175.137C229.247 175.137 228.648 174.932 228.179 174.521C227.714 174.107 227.481 173.583 227.481 172.949C227.481 172.179 227.773 171.582 228.356 171.158C228.944 170.73 229.769 170.516 230.831 170.516H232.062V169.935C232.062 169.493 231.929 169.142 231.665 168.882C231.401 168.618 231.011 168.485 230.496 168.485C230.045 168.485 229.667 168.599 229.361 168.827C229.056 169.055 228.903 169.331 228.903 169.654H227.632C227.632 169.285 227.762 168.93 228.021 168.588C228.286 168.242 228.641 167.968 229.088 167.768C229.539 167.567 230.034 167.467 230.571 167.467C231.424 167.467 232.091 167.681 232.574 168.109C233.057 168.533 233.308 169.119 233.326 169.866V173.271C233.326 173.95 233.413 174.49 233.586 174.891V175H232.26ZM230.161 174.036C230.558 174.036 230.934 173.934 231.289 173.729C231.645 173.523 231.902 173.257 232.062 172.929V171.411H231.07C229.521 171.411 228.746 171.865 228.746 172.771C228.746 173.168 228.878 173.478 229.143 173.701C229.407 173.924 229.746 174.036 230.161 174.036ZM238.884 168.738C238.692 168.706 238.485 168.69 238.262 168.69C237.432 168.69 236.869 169.044 236.573 169.75V175H235.309V167.604H236.539L236.56 168.458C236.974 167.797 237.562 167.467 238.323 167.467C238.569 167.467 238.756 167.499 238.884 167.562V168.738ZM242.883 174.104C243.334 174.104 243.728 173.968 244.065 173.694C244.403 173.421 244.59 173.079 244.626 172.669H245.822C245.799 173.093 245.654 173.496 245.385 173.879C245.116 174.262 244.756 174.567 244.305 174.795C243.858 175.023 243.384 175.137 242.883 175.137C241.876 175.137 241.074 174.802 240.477 174.132C239.884 173.457 239.588 172.537 239.588 171.37V171.158C239.588 170.438 239.72 169.798 239.984 169.237C240.249 168.677 240.627 168.242 241.119 167.932C241.616 167.622 242.201 167.467 242.876 167.467C243.705 167.467 244.394 167.715 244.94 168.212C245.492 168.709 245.786 169.354 245.822 170.146H244.626C244.59 169.668 244.407 169.276 244.079 168.971C243.756 168.661 243.354 168.506 242.876 168.506C242.233 168.506 241.734 168.738 241.379 169.203C241.028 169.663 240.853 170.331 240.853 171.206V171.445C240.853 172.298 241.028 172.954 241.379 173.414C241.73 173.874 242.231 174.104 242.883 174.104ZM248.509 168.499C249.069 167.811 249.799 167.467 250.696 167.467C252.259 167.467 253.048 168.349 253.062 170.112V175H251.797V170.105C251.792 169.572 251.669 169.178 251.428 168.923C251.191 168.668 250.819 168.54 250.313 168.54C249.903 168.54 249.543 168.649 249.233 168.868C248.924 169.087 248.682 169.374 248.509 169.729V175H247.244V164.5H248.509V168.499ZM261.497 175.137C260.494 175.137 259.679 174.809 259.05 174.152C258.421 173.492 258.106 172.61 258.106 171.507V171.274C258.106 170.541 258.245 169.887 258.523 169.312C258.806 168.734 259.198 168.283 259.699 167.959C260.205 167.631 260.752 167.467 261.34 167.467C262.301 167.467 263.049 167.784 263.582 168.417C264.115 169.05 264.382 169.957 264.382 171.138V171.664H259.371C259.389 172.393 259.601 172.983 260.007 173.435C260.417 173.881 260.937 174.104 261.565 174.104C262.012 174.104 262.39 174.013 262.7 173.831C263.01 173.649 263.281 173.407 263.514 173.106L264.286 173.708C263.666 174.66 262.737 175.137 261.497 175.137ZM261.34 168.506C260.829 168.506 260.401 168.693 260.055 169.066C259.708 169.436 259.494 169.955 259.412 170.625H263.117V170.529C263.081 169.887 262.908 169.39 262.598 169.039C262.288 168.684 261.868 168.506 261.34 168.506ZM267.048 167.604L267.089 168.533C267.654 167.822 268.392 167.467 269.304 167.467C270.867 167.467 271.655 168.349 271.669 170.112V175H270.404V170.105C270.4 169.572 270.277 169.178 270.035 168.923C269.798 168.668 269.427 168.54 268.921 168.54C268.511 168.54 268.151 168.649 267.841 168.868C267.531 169.087 267.289 169.374 267.116 169.729V175H265.852V167.604H267.048ZM275.292 165.812V167.604H276.673V168.581H275.292V173.168C275.292 173.464 275.354 173.688 275.477 173.838C275.6 173.984 275.809 174.057 276.105 174.057C276.251 174.057 276.452 174.029 276.707 173.975V175C276.374 175.091 276.051 175.137 275.736 175.137C275.171 175.137 274.745 174.966 274.458 174.624C274.171 174.282 274.027 173.797 274.027 173.168V168.581H272.681V167.604H274.027V165.812H275.292ZM281.731 168.738C281.54 168.706 281.333 168.69 281.109 168.69C280.28 168.69 279.717 169.044 279.421 169.75V175H278.156V167.604H279.387L279.407 168.458C279.822 167.797 280.41 167.467 281.171 167.467C281.417 167.467 281.604 167.499 281.731 167.562V168.738ZM285.443 173.147L287.166 167.604H288.52L285.546 176.142C285.086 177.372 284.354 177.987 283.352 177.987L283.112 177.967L282.641 177.878V176.853L282.982 176.88C283.411 176.88 283.743 176.793 283.98 176.62C284.222 176.447 284.42 176.13 284.575 175.67L284.855 174.918L282.217 167.604H283.598L285.443 173.147Z" fill="black"/>
<path d="M195 121L200.196 130.75H189.804L195 121Z" fill="#8C8C8C"/>
<path d="M195 325L189.804 315.25H200.196L195 325Z" fill="#8C8C8C"/>
</svg>
